<svg xmlns="http://www.w3.org/2000/svg" viewBox="0 0 192 192">
  <rect width="192" height="192" rx="40" fill="#6366f1"/>
  <rect x="32" y="48" width="128" height="112" rx="12" fill="white" opacity="0.95"/>
  <rect x="32" y="48" width="128" height="36" rx="12" fill="white" opacity="0.95"/>
  <rect x="32" y="68" width="128" height="16" fill="white" opacity="0.95"/>
  <line x1="64" y1="36" x2="64" y2="64" stroke="white" stroke-width="8" stroke-linecap="round"/>
  <line x1="128" y1="36" x2="128" y2="64" stroke="white" stroke-width="8" stroke-linecap="round"/>
  <rect x="48" y="100" width="24" height="8" rx="4" fill="#6366f1" opacity="0.4"/>
  <rect x="80" y="100" width="24" height="8" rx="4" fill="#3b82f6" opacity="0.6"/>
  <rect x="112" y="100" width="32" height="8" rx="4" fill="#8b5cf6" opacity="0.6"/>
  <rect x="48" y="120" width="40" height="8" rx="4" fill="#f59e0b" opacity="0.6"/>
  <rect x="96" y="120" width="16" height="8" rx="4" fill="#6366f1" opacity="0.4"/>
  <rect x="48" y="140" width="28" height="8" rx="4" fill="#3b82f6" opacity="0.6"/>
  <rect x="84" y="140" width="60" height="8" rx="4" fill="#6366f1" opacity="0.3"/>
</svg>
